<?xml version="1.0" encoding="UTF-8"?>
<svg width="96px" height="96px" viewBox="0 0 96 96" version="1.1" xmlns="http://www.w3.org/2000/svg" xmlns:xlink="http://www.w3.org/1999/xlink">
    <title>Group 2</title>
    <defs>
        <linearGradient x1="94.9613555%" y1="-15.0476365%" x2="22.2264014%" y2="100%" id="linearGradient-1">
            <stop stop-color="#D2F3FF" offset="0%"></stop>
            <stop stop-color="#00A6C1" offset="100%"></stop>
        </linearGradient>
        <linearGradient x1="74.9394531%" y1="-15.0476365%" x2="34.5943622%" y2="100%" id="linearGradient-2">
            <stop stop-color="#D2F3FF" offset="0%"></stop>
            <stop stop-color="#00A6C1" offset="100%"></stop>
        </linearGradient>
    </defs>
    <g id="Page-1" stroke="none" stroke-width="1" fill="none" fill-rule="evenodd">
        <g id="Artboard" transform="translate(-151.000000, -89.000000)">
            <g id="Group-2" transform="translate(151.000000, 89.000000)">
                <rect id="Rectangle" fill="#201F2F" x="0" y="0" width="96" height="96" rx="8"></rect>
                <g id="bunny" transform="translate(7.000000, 5.000000)">
                    <path d="M66.2940546,12.6066879 C68.1623766,12.6066879 69.5916673,13.4413124 70.6022413,14.6463922 C71.8737472,16.1626257 72.4888535,18.2595327 72.4888535,20.0419217 C72.4888535,21.6092071 72.0094402,22.7812205 70.9977448,23.5545332 C69.9661818,24.3430323 68.4034064,24.7181529 66.2940546,24.7181529 C64.0525236,24.7181529 62.0213792,24.2914038 60.599347,23.4102508 C59.3611976,22.6430396 58.593949,21.5262653 58.593949,20.0419217 C58.593949,18.3415478 59.5759691,16.3604159 61.117282,14.8704546 C62.4866185,13.5467399 64.3041775,12.6066879 66.2940546,12.6066879 Z" id="tail" stroke="#D6D6D6" stroke-width="0.5" fill="#FFFFFF"></path>
                    <path d="M40.6011383,68.7850318 C40.9855462,69.4022054 40.7111816,69.8936493 40.3966848,70.5062542 C39.7522837,71.761476 38.8839502,73.47039 38.8839502,75.3503185 C38.8839502,77.2982872 38.6351162,79.0529684 38.088035,80.2735473 C37.8500754,80.8044529 37.5567655,81.231857 37.197721,81.5191348 C36.8780368,81.7749198 36.5062726,81.9156051 36.0792394,81.9156051 C35.6094151,81.9156051 35.1627923,81.7470674 34.7547768,81.4478884 C34.3091192,81.1211081 33.9101729,80.6405498 33.5745912,80.0464923 C32.8956656,78.8446366 32.4792994,77.1835952 32.4792994,75.3503185 C32.4792994,73.853179 33.530984,72.4861143 34.8777372,71.3897591 C36.8121561,69.8150013 39.3896435,68.7850318 40.6011383,68.7850318 Z" id="far-leg" stroke="#989898" stroke-width="0.5" fill="#F2F2F2"></path>
                    <path d="M56.2051683,18.593949 C63.8462579,18.593949 69.5005147,21.109353 73.3478514,25.1633558 C77.7128763,29.7628554 79.75,36.3321859 79.75,43.41696 C79.75,47.0938617 78.3736438,50.9106865 76.0456263,54.5111877 C77.1238783,56.2053801 77.839172,58.2489711 77.839172,60.5402034 C77.839172,62.4449323 76.8711327,64.1847262 75.577515,65.5311009 C73.9698921,67.2042867 71.8497581,68.2850318 70.4076166,68.2850318 C69.5971108,68.2850318 69.0408991,67.9184501 68.6586975,67.2828486 C68.1772544,66.4822084 67.9591689,65.2845474 67.8545162,63.8563161 C62.7081627,67.3510209 57.0440014,70.1491392 51.2949247,71.3447082 C50.5939868,72.5904532 50.0941413,73.9210691 50.0941413,75.3503185 C50.0941413,77.2982872 49.8453073,79.0529684 49.298226,80.2735473 C49.0602664,80.8044529 48.7669566,81.231857 48.4079121,81.5191348 C48.0882279,81.7749198 47.7164636,81.9156051 47.2894305,81.9156051 C46.8196062,81.9156051 46.3729834,81.7470674 45.9649679,81.4478884 C45.5193103,81.1211081 45.120364,80.6405498 44.7847823,80.0464923 C44.1058567,78.8446366 43.6894904,77.1835952 43.6894904,75.3503185 C43.6894904,74.2828016 44.2285801,73.2805528 45.0230628,72.3952268 C45.1539411,72.2493836 45.2887212,72.1100884 45.4266433,71.9786611 L44.8374631,71.9782545 C35.8976381,71.9616256 28.15192,71.4867888 23.0227412,68.8030559 C20.9224294,67.7041127 19.2653246,66.2326609 18.1558687,64.2620793 C17.114022,62.411583 16.5557325,60.1236338 16.5557325,57.2998806 C16.5557325,50.3137879 22.9225096,40.083845 31.3096172,31.8950678 C38.9882568,24.3980055 48.3795844,18.593949 56.2051683,18.593949 Z" id="Combined-Shape" stroke="#D6D6D6" stroke-width="0.5" fill="#FFFFFF"></path>
                    <path d="M34.3548308,0.25 C35.4862676,0.25 36.390813,0.466320284 37.110192,0.916931876 C37.8400196,1.37408837 38.3749879,2.07125692 38.7713617,3.00810297 C39.7090282,5.22431673 39.8773885,8.74361149 39.8773885,13.6436806 C39.8773885,17.8270976 37.807805,22.117006 35.084414,25.546867 C31.8618055,29.6054466 27.7135426,32.4888535 24.9653684,32.4888535 C23.7458716,32.4888535 22.77563,32.3292976 22.0080375,31.9466115 C21.2817476,31.5845169 20.7431913,31.0204219 20.3435095,30.2120749 C19.4385209,28.3817573 19.2308917,25.3493145 19.2308917,20.6353929 C19.2308917,16.3792373 21.415904,11.6854242 24.2562072,7.87307829 C27.5136256,3.50086707 31.6431524,0.25 34.3548308,0.25 Z" id="far-ear" stroke="#989898" stroke-width="0.5" fill="#F2F2F2"></path>
                    <path d="M53.0787647,4.9633758 C55.3774346,4.9633758 56.6592279,5.08677621 57.327846,6.14331086 C58.0284462,7.25038305 58.0866051,9.30133925 58.0934024,13.032483 L58.0936626,14.3549341 L58.0928164,15.7714602 C58.0928164,19.043554 56.6098904,22.3301481 54.4376714,25.2721048 C51.7506551,28.91128 48.004482,32.0245271 44.6485654,33.9336243 C51.4023293,38.8781526 55.8009554,46.168052 55.8009554,54.3949045 C55.8009554,61.2533299 52.7437422,67.4611465 47.8048192,71.9552243 C42.8569498,76.4574426 36.0210881,79.2404459 28.4713376,79.2404459 C20.921587,79.2404459 14.0857254,76.4574426 9.13785599,71.9552243 C4.19893299,67.4611465 1.14171975,61.2533299 1.14171975,54.3949045 C1.14171975,47.536479 4.19893299,41.3286624 9.13785599,36.8345847 C14.0857254,32.3323663 20.921587,29.5493631 28.4713376,29.5493631 C30.9252124,29.5493631 33.3036209,29.8433508 35.5663156,30.394827 C35.9474151,29.0383629 36.0034555,27.6965687 36.0034555,26.1040202 C36.0034555,21.5848553 38.4022768,16.8379735 41.520424,12.9881618 C45.2874563,8.33720587 50.1174186,4.9633758 53.0787647,4.9633758 Z" id="Combined-Shape" stroke="#D6D6D6" stroke-width="0.5" fill="#FFFFFF"></path>
                    <g id="Group" transform="translate(0.000000, 42.292994)">
                        <ellipse id="close-eye" fill="url(#linearGradient-1)" cx="32.9299363" cy="15.0318471" rx="10.5095541" ry="11.0828025"></ellipse>
                        <path d="M36.774903,17.1974522 C39.9086854,17.1974522 41.2738854,14.6555236 41.2738854,11.1117195 C41.2738854,7.56791547 37.1987732,4.84076433 34.0649907,4.84076433 C30.9312082,4.84076433 29.5541401,7.56791547 29.5541401,11.1117195 C29.5541401,14.6555236 33.6411205,17.1974522 36.774903,17.1974522 Z" id="close-eye-spot-top" fill="#FFFFFF"></path>
                        <ellipse id="close-eye-spot-lower" fill="#FFFFFF" cx="27.388535" cy="20.5095541" rx="2.29299363" ry="1.91082803"></ellipse>
                        <path d="M7.19745223,20.3572837 C11.1724953,19.9675166 14.3949045,15.0999847 14.3949045,9.48534693 C14.3949045,3.87070919 11.1724953,-0.364885296 7.19745223,0.0248818641 C3.22240913,0.414649024 0,5.28218093 0,10.8968187 C0,16.5114564 3.22240913,20.7470509 7.19745223,20.3572837 Z" id="far-eye" fill="url(#linearGradient-2)"></path>
                        <ellipse id="far-eye-spot-lower" fill="#FFFFFF" cx="2.86624204" cy="14.7770701" rx="1.97452229" ry="1.65605096"></ellipse>
                        <path d="M10.1482653,10.1910828 C12.3964136,10.1910828 13.3757962,8.33049587 13.3757962,5.73657743 C13.3757962,3.14265899 10.4523461,1.14649682 8.20419784,1.14649682 C5.95604956,1.14649682 4.96815287,3.14265899 4.96815287,5.73657743 C4.96815287,8.33049587 7.90011705,10.1910828 10.1482653,10.1910828 Z" id="far-eye-spot-top" fill="#FFFFFF"></path>
                    </g>
                    <g id="nose-and-mouth" transform="translate(16.221850, 64.262249) rotate(11.000000) translate(-16.221850, -64.262249) translate(14.246869, 62.357803)" stroke="#D5E2E3" stroke-linecap="square" stroke-width="0.5">
                        <line x1="0.0705350325" y1="0.0705350325" x2="3.87942679" y2="3.73835672" id="Line"></line>
                        <line x1="3.87942679" y1="0.0705350325" x2="0.0705350325" y2="3.73835672" id="Line-2"></line>
                    </g>
                </g>
            </g>
        </g>
    </g>
</svg>