<?xml version="1.0" encoding="UTF-8"?>
<svg width="998px" height="893px" viewBox="0 0 998 893" version="1.1" xmlns="http://www.w3.org/2000/svg" xmlns:xlink="http://www.w3.org/1999/xlink">
    <title>Artboard</title>
    <defs>
        <linearGradient x1="94.8460208%" y1="-15.0476365%" x2="22.2976462%" y2="100%" id="linearGradient-1">
            <stop stop-color="#D2F3FF" offset="0%"></stop>
            <stop stop-color="#00A6C1" offset="100%"></stop>
        </linearGradient>
        <linearGradient x1="74.9929003%" y1="-15.0476365%" x2="34.5613467%" y2="100%" id="linearGradient-2">
            <stop stop-color="#D2F3FF" offset="0%"></stop>
            <stop stop-color="#00A6C1" offset="100%"></stop>
        </linearGradient>
    </defs>
    <g id="Artboard" stroke="none" stroke-width="1" fill="none" fill-rule="evenodd">
        <g id="bunny" transform="translate(192.000000, 131.000000)">
            <path d="M509.303756,95.25 C524.265111,95.25 535.716014,101.908891 543.810215,111.536395 C553.868778,123.500375 558.75,140.042951 558.75,154.110316 C558.75,166.792716 554.778289,176.215713 546.593327,182.456137 C538.415377,188.691214 526.052873,191.75 509.303756,191.75 C491.660841,191.75 475.693669,188.35311 464.507557,181.439369 C454.436127,175.214575 448.25,166.133745 448.25,154.110316 C448.25,140.653955 455.974539,124.938263 468.219018,113.13189 C479.086568,102.653179 493.521434,95.25 509.303756,95.25 Z" id="tail" stroke="#000000" stroke-width="0.5" fill="#FFFFFF"></path>
            <path d="M311.867698,526.25 C313.589653,526.25 314.806192,526.513695 315.59952,527.041884 C316.399138,527.574262 316.74096,528.379525 316.749821,529.419039 C316.773284,532.171432 314.560797,536.485107 311.78179,541.951095 C306.966683,551.421857 300.424706,564.306452 300.424706,578.5 C300.424706,593.783194 298.45658,607.538629 294.207445,617.111215 C292.269606,621.476843 289.858414,624.969769 286.937885,627.329325 C284.203395,629.538575 281.022559,630.75 277.370705,630.75 C273.444377,630.75 269.701826,629.351321 266.28753,626.82336 C262.718787,624.181045 259.509376,620.307118 256.820659,615.501048 C251.523082,606.031654 248.25,592.949124 248.25,578.5 C248.25,566.520807 256.44715,555.495849 267.15927,546.69036 C282.27001,534.269154 302.417127,526.25 311.867698,526.25 Z" id="far-leg" stroke="#000000" stroke-width="0.5" fill="#FFFFFF"></path>
            <path d="M431.319938,141.25 C490.541365,141.25 534.331352,160.809826 564.140247,192.243189 C597.926692,227.870863 613.75,278.741493 613.75,333.63541 C613.75,385.527103 578.583628,441.044986 527.590331,483.46908 C477.012853,525.547231 410.852814,554.75 347.922181,554.75 C277.775341,554.75 216.885813,551.303597 176.578478,530.563855 C159.901401,521.98283 146.752334,510.439228 137.940497,494.945505 C129.697005,480.451095 125.25,462.502398 125.25,440.297593 C125.25,386.328523 174.238473,307.217 239.023206,243.917448 C298.334097,185.966252 370.903906,141.25 431.319938,141.25 Z" id="body" stroke="#000000" stroke-width="0.5" fill="#FFFFFF"></path>
            <path d="M397.867698,526.25 C399.589653,526.25 400.806192,526.513695 401.59952,527.041884 C402.399138,527.574262 402.74096,528.379525 402.749821,529.419039 C402.773284,532.171432 400.560797,536.485107 397.78179,541.951095 C392.966683,551.421857 386.424706,564.306452 386.424706,578.5 C386.424706,593.783194 384.45658,607.538629 380.207445,617.111215 C378.269606,621.476843 375.858414,624.969769 372.937885,627.329325 C370.203395,629.538575 367.022559,630.75 363.370705,630.75 C359.444377,630.75 355.701826,629.351321 352.28753,626.82336 C348.718787,624.181045 345.509376,620.307118 342.820659,615.501048 C337.523082,606.031654 334.25,592.949124 334.25,578.5 C334.25,566.520807 342.44715,555.495849 353.15927,546.69036 C368.27001,534.269154 388.417127,526.25 397.867698,526.25 Z" id="close-leg" stroke="#000000" stroke-width="0.5" fill="#FFFFFF"></path>
            <path d="M263.777339,0.25 C272.816995,0.25 280.027806,2.01798168 285.769626,5.61736327 C291.631678,9.29211431 295.958313,14.8745553 299.145259,22.412826 C306.385793,39.5392813 307.75,66.7236953 307.75,104.602436 C307.75,137.028021 291.771039,170.302968 270.670608,196.897449 C245.56741,228.536922 213.205028,250.75 191.846138,250.75 C182.190125,250.75 174.520811,249.447876 168.447578,246.417716 C162.564682,243.482521 158.185767,238.92379 154.946122,232.36665 C147.943386,218.192898 146.25,194.730028 146.25,158.206017 C146.25,125.255016 163.097499,88.8906567 185.078072,59.3649522 C210.463357,25.2658211 242.70548,0.25 263.777339,0.25 Z" id="far-ear" stroke="#050505" stroke-width="0.5" fill="#FFFFFF"></path>
            <path d="M407.58171,36.25 C426.524588,36.25 436.582915,37.6712908 441.870547,46.5270283 C447.318009,55.6504506 447.737319,72.5794094 447.749715,103.69214 L447.749301,107.787617 C447.748529,109.348919 447.747216,110.943855 447.745875,112.573142 C447.744378,114.391677 447.742846,116.253004 447.741991,118.158119 L447.741305,121.048757 C447.741305,154.848705 427.566465,188.884418 401.330191,216.560018 C367.252154,252.507581 322.927352,277.75 299.202625,277.75 L296.902336,277.750094 C296.713314,277.750077 296.525603,277.750044 296.339194,277.749985 L295.236312,277.749248 C283.093906,277.735971 276.726189,277.527263 273.674079,274.476198 C270.320481,271.123747 271.012147,264.356443 272.271317,250.852273 C273.331018,239.487354 274.83364,223.371158 274.83364,200.517438 C274.83364,165.411873 293.370591,128.507476 317.556977,98.5891305 C346.897355,62.2953424 384.564592,36.25 407.58171,36.25 Z" id="close-ear" stroke="#050505" stroke-width="0.5" fill="#FFFFFF"></path>
            <ellipse id="head" stroke="#050505" stroke-width="0.5" fill="#FFFFFF" cx="219" cy="417.5" rx="211.75" ry="192.25"></ellipse>
            <ellipse id="close-eye" fill="url(#linearGradient-1)" cx="252.5" cy="440" rx="80.5" ry="85"></ellipse>
            <path d="M282.450749,457 C306.516155,457 317,437.457286 317,410.212009 C317,382.966732 285.705796,362 261.640391,362 C237.574985,362 227,382.966732 227,410.212009 C227,437.457286 258.385344,457 282.450749,457 Z" id="close-eye-spot-top" fill="#FFFFFF"></path>
            <ellipse id="close-eye-spot-lower" fill="#FFFFFF" cx="210.5" cy="482.5" rx="17.5" ry="14.5"></ellipse>
            <path d="M55.5,481.80834 C86.1518036,478.806036 111,441.312351 111,398.063849 C111,354.815347 86.1518036,322.189357 55.5,325.19166 C24.8481964,328.193964 0,365.687649 0,408.936151 C0,452.184653 24.8481964,484.810643 55.5,481.80834 Z" id="far-eye" fill="url(#linearGradient-2)"></path>
            <ellipse id="far-eye-spot-lower" fill="#FFFFFF" cx="22" cy="438.5" rx="15" ry="12.5"></ellipse>
            <path d="M78.0477634,403 C95.4283341,403 103,388.805818 103,369.017143 C103,349.228468 80.3986305,334 63.0180598,334 C45.6374892,334 38,349.228468 38,369.017143 C38,388.805818 60.6671928,403 78.0477634,403 Z" id="far-eye-spot-top" fill="#FFFFFF"></path>
            <path d="M559.5,404.25 C569.955644,404.25 580.225632,411.262002 587.773284,422.582888 C595.013394,433.442484 599.75,448.272958 599.75,464.746822 C599.75,479.765538 592.168602,493.512287 581.959353,504.138944 C569.270218,517.346878 552.511847,525.75 541.152807,525.75 C536.862306,525.75 533.408602,524.543908 530.631866,522.320234 C527.632575,519.918333 525.423949,516.335313 523.79243,511.824113 C519.736323,500.608857 519.25,483.682198 519.25,464.746822 C519.25,448.272958 523.986606,433.442484 531.226716,422.582888 C538.774368,411.262002 549.044356,404.25 559.5,404.25 Z" id="back-leg" stroke="#000000" stroke-width="0.5" fill="#FFFFFF"></path>
            <g id="nose-and-mouth" transform="translate(124.577520, 493.509165) rotate(11.000000) translate(-124.577520, -493.509165) translate(109.410432, 478.883759)" stroke="#000000" stroke-linecap="square" stroke-width="0.5">
                <line x1="0.54168171" y1="0.54168171" x2="29.7924941" y2="28.7091306" id="Line"></line>
                <line x1="29.7924941" y1="0.54168171" x2="0.54168171" y2="28.7091306" id="Line-2"></line>
            </g>
        </g>
    </g>
</svg>