<?xml version="1.0" encoding="UTF-8"?>
<svg width="80px" height="83px" viewBox="0 0 80 83" version="1.1" xmlns="http://www.w3.org/2000/svg" xmlns:xlink="http://www.w3.org/1999/xlink">
    <title>bunny</title>
    <defs>
        <linearGradient x1="94.9613555%" y1="-15.0476365%" x2="22.2264014%" y2="100%" id="linearGradient-1">
            <stop stop-color="#D2F3FF" offset="0%"></stop>
            <stop stop-color="#00A6C1" offset="100%"></stop>
        </linearGradient>
        <linearGradient x1="74.9394531%" y1="-15.0476365%" x2="34.5943622%" y2="100%" id="linearGradient-2">
            <stop stop-color="#D2F3FF" offset="0%"></stop>
            <stop stop-color="#00A6C1" offset="100%"></stop>
        </linearGradient>
    </defs>
    <g id="Page-1" stroke="none" stroke-width="1" fill="none" fill-rule="evenodd">
        <g id="Artboard" transform="translate(-158.000000, -94.000000)">
            <g id="bunny" transform="translate(158.000000, 94.000000)">
                <path d="M66.2940546,12.6066879 C68.1623766,12.6066879 69.5916673,13.4413124 70.6022413,14.6463922 C71.8737472,16.1626257 72.4888535,18.2595327 72.4888535,20.0419217 C72.4888535,21.6092071 72.0094402,22.7812205 70.9977448,23.5545332 C69.9661818,24.3430323 68.4034064,24.7181529 66.2940546,24.7181529 C64.0525236,24.7181529 62.0213792,24.2914038 60.599347,23.4102508 C59.3611976,22.6430396 58.593949,21.5262653 58.593949,20.0419217 C58.593949,18.3415478 59.5759691,16.3604159 61.117282,14.8704546 C62.4866185,13.5467399 64.3041775,12.6066879 66.2940546,12.6066879 Z" id="tail" stroke="#000000" stroke-width="0.5" fill="#FFFFFF"></path>
                <path d="M40.6011383,68.7850318 C40.9855462,69.4022054 40.7111816,69.8936493 40.3966848,70.5062542 C39.7522837,71.761476 38.8839502,73.47039 38.8839502,75.3503185 C38.8839502,77.2982872 38.6351162,79.0529684 38.088035,80.2735473 C37.8500754,80.8044529 37.5567655,81.231857 37.197721,81.5191348 C36.8780368,81.7749198 36.5062726,81.9156051 36.0792394,81.9156051 C35.6094151,81.9156051 35.1627923,81.7470674 34.7547768,81.4478884 C34.3091192,81.1211081 33.9101729,80.6405498 33.5745912,80.0464923 C32.8956656,78.8446366 32.4792994,77.1835952 32.4792994,75.3503185 C32.4792994,73.853179 33.530984,72.4861143 34.8777372,71.3897591 C36.8121561,69.8150013 39.3896435,68.7850318 40.6011383,68.7850318 Z" id="far-leg" stroke="#000000" stroke-width="0.5" fill="#FFFFFF"></path>
                <path d="M56.2051683,18.593949 C63.8462579,18.593949 69.5005147,21.109353 73.3478514,25.1633558 C77.7128763,29.7628554 79.75,36.3321859 79.75,43.41696 C79.75,50.1175353 75.1909222,57.2772799 68.6057906,62.7517592 C62.0569928,68.1960329 53.4916238,71.9792994 45.3422663,71.9792994 C36.2480209,71.9792994 28.350268,71.5427595 23.1234582,68.8553439 C20.9908175,67.7588258 19.3073427,66.2854402 18.1802528,64.3051595 C17.1227436,62.4471309 16.5557325,60.1455908 16.5557325,57.2998806 C16.5557325,50.3137879 22.9225096,40.083845 31.3096172,31.8950678 C38.9882568,24.3980055 48.3795844,18.593949 56.2051683,18.593949 Z" id="body" stroke="#000000" stroke-width="0.5" fill="#FFFFFF"></path>
                <path d="M51.8113294,68.7850318 C52.1957373,69.4022054 51.9213727,69.8936493 51.6068758,70.5062542 C50.9624748,71.761476 50.0941413,73.47039 50.0941413,75.3503185 C50.0941413,77.2982872 49.8453073,79.0529684 49.298226,80.2735473 C49.0602664,80.8044529 48.7669566,81.231857 48.4079121,81.5191348 C48.0882279,81.7749198 47.7164636,81.9156051 47.2894305,81.9156051 C46.8196062,81.9156051 46.3729834,81.7470674 45.9649679,81.4478884 C45.5193103,81.1211081 45.120364,80.6405498 44.7847823,80.0464923 C44.1058567,78.8446366 43.6894904,77.1835952 43.6894904,75.3503185 C43.6894904,73.853179 44.7411751,72.4861143 46.0879283,71.3897591 C48.0223471,69.8150013 50.5998346,68.7850318 51.8113294,68.7850318 Z" id="close-leg" stroke="#000000" stroke-width="0.5" fill="#FFFFFF"></path>
                <path d="M34.3548308,0.25 C35.4862676,0.25 36.390813,0.466320284 37.110192,0.916931876 C37.8400196,1.37408837 38.3749879,2.07125692 38.7713617,3.00810297 C39.7090282,5.22431673 39.8773885,8.74361149 39.8773885,13.6436806 C39.8773885,17.8270976 37.807805,22.117006 35.084414,25.546867 C31.8618055,29.6054466 27.7135426,32.4888535 24.9653684,32.4888535 C23.7458716,32.4888535 22.77563,32.3292976 22.0080375,31.9466115 C21.2817476,31.5845169 20.7431913,31.0204219 20.3435095,30.2120749 C19.4385209,28.3817573 19.2308917,25.3493145 19.2308917,20.6353929 C19.2308917,16.3792373 21.415904,11.6854242 24.2562072,7.87307829 C27.5136256,3.50086707 31.6431524,0.25 34.3548308,0.25 Z" id="far-ear" stroke="#050505" stroke-width="0.5" fill="#FFFFFF"></path>
                <path d="M53.0787647,4.9633758 C55.3797951,4.9633758 56.6619086,5.08701709 57.3299593,6.14665657 C58.0304601,7.25776737 58.0870576,9.31678932 58.0934582,13.0640121 L58.0931137,15.0470648 C58.0929441,15.2831462 58.0928164,15.5245715 58.0928164,15.7714602 C58.0928164,20.1161534 55.4832638,24.4850919 52.1067617,28.0400803 C47.7201048,32.6586216 42.0184323,35.9283439 38.9606255,35.928344 L38.4214392,35.9280884 C36.9147648,35.9253533 36.1091094,35.9466482 35.755319,35.5302204 C35.3912116,35.1016492 35.5209212,34.2509626 35.6687254,32.6688182 C35.8071966,31.1865764 36.0034555,29.0846571 36.0034555,26.1040202 C36.0034555,21.5848553 38.4022768,16.8379735 41.520424,12.9881618 C45.2874563,8.33720587 50.1174186,4.9633758 53.0787647,4.9633758 Z" id="close-ear" stroke="#050505" stroke-width="0.5" fill="#FFFFFF"></path>
                <ellipse id="head" stroke="#050505" stroke-width="0.5" fill="#FFFFFF" cx="28.4713376" cy="54.3949045" rx="27.3296178" ry="24.8455414"></ellipse>
                <ellipse id="close-eye" fill="url(#linearGradient-1)" cx="32.9299363" cy="57.3248408" rx="10.5095541" ry="11.0828025"></ellipse>
                <path d="M36.774903,59.4904459 C39.9086854,59.4904459 41.2738854,56.9485172 41.2738854,53.4047132 C41.2738854,49.8609091 37.1987732,47.133758 34.0649907,47.133758 C30.9312082,47.133758 29.5541401,49.8609091 29.5541401,53.4047132 C29.5541401,56.9485172 33.6411205,59.4904459 36.774903,59.4904459 Z" id="close-eye-spot-top" fill="#FFFFFF"></path>
                <ellipse id="close-eye-spot-lower" fill="#FFFFFF" cx="27.388535" cy="62.8025478" rx="2.29299363" ry="1.91082803"></ellipse>
                <path d="M7.19745223,62.6502774 C11.1724953,62.2605102 14.3949045,57.3929783 14.3949045,51.7783406 C14.3949045,46.1637028 11.1724953,41.9281083 7.19745223,42.3178755 C3.22240913,42.7076427 0,47.5751746 0,53.1898123 C0,58.80445 3.22240913,63.0400445 7.19745223,62.6502774 Z" id="far-eye" fill="url(#linearGradient-2)"></path>
                <ellipse id="far-eye-spot-lower" fill="#FFFFFF" cx="2.86624204" cy="57.0700637" rx="1.97452229" ry="1.65605096"></ellipse>
                <path d="M10.1482653,52.4840764 C12.3964136,52.4840764 13.3757962,50.6234895 13.3757962,48.0295711 C13.3757962,45.4356526 10.4523461,43.4394904 8.20419784,43.4394904 C5.95604956,43.4394904 4.96815287,45.4356526 4.96815287,48.0295711 C4.96815287,50.6234895 7.90011705,52.4840764 10.1482653,52.4840764 Z" id="far-eye-spot-top" fill="#FFFFFF"></path>
                <path d="M72.8025478,52.861465 C74.1062415,52.861465 75.375374,53.752305 76.3123201,55.1575118 C77.2366912,56.5438591 77.839172,58.4376276 77.839172,60.5402034 C77.839172,62.4449323 76.8711327,64.1847262 75.577515,65.5311009 C73.9698921,67.2042867 71.8497581,68.2850318 70.4076166,68.2850318 C69.9038487,68.2850318 69.4967408,68.1465917 69.1701403,67.8850683 C68.8065066,67.5938908 68.5433315,67.1566824 68.3459047,66.6108453 C67.8228159,65.164632 67.7659236,62.9811113 67.7659236,60.5402034 C67.7659236,58.4376276 68.3684043,56.5438591 69.2927755,55.1575118 C70.2297215,53.752305 71.4988541,52.861465 72.8025478,52.861465 Z" id="back-leg" stroke="#000000" stroke-width="0.5" fill="#FFFFFF"></path>
                <g id="nose-and-mouth" transform="translate(16.221850, 64.262249) rotate(11.000000) translate(-16.221850, -64.262249) translate(14.246869, 62.357803)" stroke="#000000" stroke-linecap="square" stroke-width="0.5">
                    <line x1="0.0705350325" y1="0.0705350325" x2="3.87942679" y2="3.73835672" id="Line"></line>
                    <line x1="3.87942679" y1="0.0705350325" x2="0.0705350325" y2="3.73835672" id="Line-2"></line>
                </g>
            </g>
        </g>
    </g>
</svg>